<svg width="43" height="43" viewBox="0 0 43 43" fill="none" xmlns="http://www.w3.org/2000/svg">
<g id="vuesax/linear/box">
<g id="vuesax/linear/box_2">
<g id="box">
<g id="Group">
<g id="Group_2">
<path id="Vector" d="M6.04761 13.5225L21.5001 22.4649L36.8476 13.5749" stroke="#3B854A" stroke-width="2" stroke-linecap="round" stroke-linejoin="round"/>
<path id="Vector_2" d="M21.5 38.3199V22.4474" stroke="#3B854A" stroke-width="2" stroke-linecap="round" stroke-linejoin="round"/>
</g>
<path id="Vector_3" d="M17.8776 4.84247L8.53259 10.04C6.41509 11.2125 4.68262 14.1525 4.68262 16.5675V26.455C4.68262 28.87 6.41509 31.81 8.53259 32.9825L17.8776 38.1801C19.8726 39.2826 23.1451 39.2826 25.1401 38.1801L34.4851 32.9825C36.6026 31.81 38.3351 28.87 38.3351 26.455V16.5675C38.3351 14.1525 36.6026 11.2125 34.4851 10.04L25.1401 4.84247C23.1276 3.72247 19.8726 3.72247 17.8776 4.84247Z" stroke="#3B854A" stroke-width="2" stroke-linecap="round" stroke-linejoin="round"/>
</g>
<path id="Vector_4" d="M30.2501 23.6725V17.2675L13.6426 7.67743" stroke="#3B854A" stroke-width="2" stroke-linecap="round" stroke-linejoin="round"/>
</g>
</g>
</g>
</svg>
