<svg width="31" height="28" viewBox="0 0 31 28" fill="none" xmlns="http://www.w3.org/2000/svg">
<g id="Vector">
<path id="Vector_2" d="M30.9521 1.14962C30.9373 0.86419 30.8302 0.594819 30.6511 0.392647C30.472 0.190476 30.2334 0.0695786 29.9806 0.0529101C23.2938 -0.384606 17.9248 1.9109 15.6175 6.21022C14.0931 9.05262 14.0957 12.5046 15.5968 15.7977C14.7424 16.9459 14.1179 18.2892 13.7662 19.7353L11.6643 17.3538C12.6746 14.9722 12.6358 12.49 11.5352 10.4279C9.82988 7.25006 5.89353 5.54666 1.00636 5.87042C0.753524 5.88709 0.514909 6.00799 0.33582 6.21016C0.156731 6.41233 0.0496374 6.6817 0.034872 6.96713C-0.253217 12.4842 1.25699 16.9279 4.07199 18.853C5.00093 19.4937 6.06839 19.8328 7.15699 19.833C8.21361 19.8183 9.2538 19.5357 10.2007 19.0061L13.4303 22.6521V26.8333C13.4303 27.1427 13.5392 27.4395 13.733 27.6583C13.9269 27.8771 14.1897 28 14.4638 28C14.7379 28 15.0008 27.8771 15.1946 27.6583C15.3885 27.4395 15.4973 27.1427 15.4973 26.8333V22.5325C15.4927 20.6764 16.0523 18.8747 17.0825 17.4281C18.4118 18.2124 19.886 18.6321 21.3857 18.6532C22.8357 18.6585 24.2587 18.2113 25.4978 17.3611C29.3062 14.7593 31.3448 8.69823 30.9521 1.14962ZM5.13779 16.8579C3.15605 15.5031 2.0347 12.2961 2.06183 8.16592C5.72042 8.13092 8.56126 9.40118 9.76141 11.6383C10.388 12.8051 10.49 14.1657 10.0792 15.5672L6.92574 12.0073C6.73035 11.7978 6.47016 11.6826 6.20067 11.6865C5.93117 11.6904 5.67368 11.813 5.4831 12.0282C5.29252 12.2433 5.18393 12.534 5.18048 12.8382C5.17703 13.1425 5.27899 13.4362 5.46463 13.6568L8.6181 17.2167C7.37661 17.6804 6.17258 17.5652 5.13779 16.8579ZM24.4268 15.3674C22.6957 16.5502 20.661 16.6406 18.594 15.6591L25.5301 7.82758C25.7157 7.607 25.8177 7.31328 25.8142 7.00904C25.8108 6.70481 25.7022 6.41413 25.5116 6.19899C25.321 5.98385 25.0635 5.86126 24.794 5.85737C24.5245 5.85347 24.2643 5.96858 24.069 6.17814L17.1316 13.9995C16.2583 11.6661 16.3371 9.36763 17.3899 7.41485C19.1908 4.06056 23.4618 2.19091 28.9303 2.33529C29.0543 8.50719 27.4007 13.3345 24.4268 15.3674Z" fill="#3B854A"/>
</g>
</svg>
