<svg width="42" height="43" viewBox="0 0 42 43" fill="none" xmlns="http://www.w3.org/2000/svg">
<g id="vuesax/linear/award">
<g id="vuesax/linear/award_2">
<g id="award">
<path id="Vector" d="M7.45496 19.7875V28.485C7.45496 31.67 7.45496 31.67 10.465 33.7L18.7425 38.4775C19.985 39.195 22.015 39.195 23.2575 38.4775L31.535 33.7C34.545 31.67 34.545 31.67 34.545 28.485V19.7875C34.545 16.6025 34.545 16.6025 31.535 14.5725L23.2575 9.79496C22.015 9.07746 19.985 9.07746 18.7425 9.79496L10.465 14.5725C7.45496 16.6025 7.45496 16.6025 7.45496 19.7875Z" stroke="#3B854A" stroke-width="2" stroke-linecap="round" stroke-linejoin="round"/>
<path id="Vector_2" d="M30.625 13.855V9.25247C30.625 5.75247 28.875 4.00247 25.375 4.00247H16.625C13.125 4.00247 11.375 5.75247 11.375 9.25247V13.7325" stroke="#3B854A" stroke-width="2" stroke-linecap="round" stroke-linejoin="round"/>
<path id="Vector_3" d="M22.1025 19.735L23.1 21.2925C23.2575 21.5375 23.6075 21.7825 23.87 21.8525L25.655 22.3075C26.7575 22.5875 27.055 23.5325 26.3375 24.4075L25.165 25.825C24.99 26.0525 24.85 26.455 24.8675 26.735L24.9725 28.5725C25.0425 29.71 24.2375 30.2875 23.1875 29.8675L21.4725 29.185C21.21 29.08 20.7725 29.08 20.51 29.185L18.795 29.8675C17.745 30.2875 16.94 29.6925 17.01 28.5725L17.115 26.735C17.1325 26.455 16.9925 26.035 16.8175 25.825L15.645 24.4075C14.9275 23.5325 15.225 22.5875 16.3275 22.3075L18.1125 21.8525C18.3925 21.7825 18.7425 21.52 18.8825 21.2925L19.88 19.735C20.51 18.79 21.49 18.79 22.1025 19.735Z" stroke="#3B854A" stroke-width="2" stroke-linecap="round" stroke-linejoin="round"/>
</g>
</g>
</g>
</svg>
